<?xml version="1.0" encoding="utf-8"?>
<!-- Generator: Adobe Illustrator 16.0.0, SVG Export Plug-In . SVG Version: 6.00 Build 0)  -->
<!DOCTYPE svg PUBLIC "-//W3C//DTD SVG 1.1//EN" "http://www.w3.org/Graphics/SVG/1.1/DTD/svg11.dtd">
<svg version="1.1" xmlns="http://www.w3.org/2000/svg" xmlns:xlink="http://www.w3.org/1999/xlink" x="0px" y="0px" width="800px"
	 height="600px" viewBox="0 0 800 600" enable-background="new 0 0 800 600" xml:space="preserve">
<g id="Outline">
	<path fill="#FFFFFF" stroke="#000000" stroke-miterlimit="10" d="M150.151,540.228c-16.12,0-32.24,0-48.36,0
		c-1.902,0-3.804,0-5.705,0c-0.161,0-0.071-4.238-0.071-4.615c0-3.984,0-7.968,0-11.953c0-0.956-0.075-11.167,0.021-11.171
		c1.062-0.037,2.129-0.011,3.192-0.012c10.248-0.011,20.496,0.001,30.745,0.001c0.751,0,0.385-7.113,0.39-7.643
		c0.035-3.973,0.069-7.947,0.104-11.921c0.035-3.997,0.07-7.994,0.105-11.991c0.008-0.954,0.017-1.909,0.025-2.863
		c0.006-0.691,0.246-0.475,0.852-0.475c2.106,0,4.212,0,6.318,0c8.096,0,16.192,0,24.287,0c4.048,0,8.096,0,12.143,0
		c1.916,0,3.83,0,5.744,0c0.347,0,1.749,0.214,1.973-0.082c0.296-0.395,0.01-1.952,0.01-2.447c0-1.556,0.259-3.365-0.085-4.892
		c-0.368-1.629-1.664-3.231-2.396-4.729c-0.803-1.641-1.279-3.28-1.838-5.007c-0.606-1.869-1.411-3.682-2.085-5.526
		c-0.625-1.709-1.204-3.438-1.648-5.203c-0.47-1.867-0.554-3.859-0.843-5.763c-0.6-3.945-0.987-7.735-0.913-11.731
		c0.083-4.422,0.1-8.734,0.933-13.096c0.811-4.241,1.962-8.304,3.472-12.347c1.506-4.035,3.454-7.728,5.483-11.514
		c1.001-1.867,0.779-4.033,0.767-6.104c-0.013-2.249-0.096-4.496-0.138-6.745c7.91,0,15.819,0,23.729,0
		c0.852,0,1.725-0.057,2.574,0.019c0.413,0.037,0.224-1.409,0.224-1.701c0-2.106,0-4.214,0-6.32c0-4.053,0-8.104,0-12.155
		c0-16.234,0-32.471,0-48.705c0-1.908,0-3.816,0-5.725c0-0.831,0.081-1.708-0.018-2.535c-0.125-1.047,0.797-0.724,1.602-0.724
		c3.97,0,7.941,0,11.91,0c8.035,0,16.07,0,24.105,0c0.877,0,0.868-0.103,0.866,0.722c-0.001,0.748,0,1.495,0,2.241
		c0,2.119,0,4.239,0,6.359c0,4.072,0,8.145,0,12.215c0,8.091,0,16.179,0,24.27c0,10.749,0,21.499,0,32.247
		c16.196-0.083,32.392-0.168,48.587-0.251c1.93-0.009,3.86-0.02,5.789-0.03c0.656-0.003,4.423,0.336,4.589-0.25
		c0.222-0.784,0.047-1.705,0.012-2.506c-0.087-1.957-0.003-3.939-0.003-5.899c0-8.08,0-16.159,0-24.239
		c0-1.525-0.262-3.059,0.588-4.391c0.938-1.467,1.679-3.052,2.568-4.549c1.743-2.935,4.451-4.733,7.368-6.419
		c3.174-1.835,6.483-2.896,10.131-3.206c3.942-0.335,7.745-0.736,11.646,0.138c3.538,0.793,6.85,2.284,9.943,4.166
		c2.654,1.619,4.792,4.21,6.646,6.681c0.841,1.122,1.586,2.387,1.786,3.798c0.271,1.917,0.07,3.993,0.071,5.929
		c0.002,3.994,0,7.988-0.003,11.981c-0.006,6.286-0.017,12.571-0.03,18.857c8.031,0,16.063,0,24.094,0c1.907,0,3.812,0,5.719,0
		c0.66,0,1.313-0.003,1.972,0.046c0.584,0.045,0.899,0.096,0.886-0.562c-0.07-3.491-0.073-6.987-0.073-10.483
		c0-4.034,0-8.067,0-12.102c0-0.966,0-1.931,0-2.897c0-0.81-0.166-1.75,0-2.545c0.325-1.557,1.528-2.919,2.93-3.62
		c1.463-0.731,3.298-0.617,4.889-0.574c1.999,0.053,3.993,0.105,5.994,0.106c4.028,0.005,8.058,0.016,12.086,0.027
		c2.648,0.007,5.022,1.478,5.538,4.219c0.501,2.664,0.118,5.677,0.119,8.374c0.004,6.645-0.05,13.289-0.105,19.934
		c8.121,0,16.242,0,24.364,0c4.06,0,8.12,0,12.182,0c1.916,0,3.832,0,5.749,0c0.888,0,1.773,0,2.66,0
		c0.151,0,0.788,0.128,0.821-0.113c0.06-0.438-0.017-0.937-0.017-1.378c0-8.484,0-16.968,0-25.452c0-7.461-0.001-14.922,0-22.382
		c0-0.765,0-1.528,0.002-2.291c0-0.522,1.114-0.188,1.467-0.188c2.12,0,4.239,0,6.359,0c8.152,0,16.305,0,24.456,0
		c32.613,0,65.227,0,97.84,0c8.143,0,16.285,0,24.428,0c3.814,0,7.78,0.314,11.576-0.026c1.27-0.115,1.225,0.262,1.129,1.442
		c-0.138,1.678-0.057,3.378-0.057,5.06c0,4.485,0.009,8.971-0.001,13.456c-0.001,0.384,0.077,0.271-0.488,0.271
		c-0.973,0-1.947,0-2.921,0c-2.102,0-4.204,0-6.306,0c-4.036,0-8.072,0-12.108,0c-2.726,0-5.452-0.016-8.179-0.016
		c-0.12,0-1.906-0.02-1.906,0.059c0,2.046,0,4.091,0,6.138c0,8.122,0,16.246,0,24.369c0,4.062,0,8.123,0,12.184
		c0,0.438-0.241,1.487,0.462,1.476c0.729-0.012,1.458-0.056,2.19-0.056c2.069,0,4.138,0,6.206,0c8.107,0,16.216,0,24.323,0
		c8.114,0,16.229,0,24.346,0c4.02,0,8.039,0,12.06,0c0.322,0,1.347-0.233,1.349,0.181c0,0.377,0,0.755,0,1.133
		c0,0.813,0,1.628,0,2.442c0,16.276,0,32.554,0,48.83c0,16.298,0,32.594,0,48.892c0,4.027,0,8.055,0,12.083
		c0,1.314-0.006,2.627,0,3.94c0.001,0.391,1.538,0.188,1.911,0.188c1.119,0,2.24,0,3.36,0c8.049,0,16.099,0,24.146,0
		c0.525,0,5.031-0.247,5.107,0.119c0.146,0.703-0.015,1.614-0.015,2.336c0,1.117,0,2.236,0,3.354c0,3.994,0,7.987,0,11.98
		c0,1.902,0,3.805,0,5.707c0,0.944,0,1.888,0,2.833c0,0.989,0.076,1.02-0.871,1c-3.709-0.07-7.425-0.012-11.134-0.012
		c-16.166,0-32.333,0-48.499,0c-32.332,0-64.665,0-96.996,0c-32.478,0-64.955,0-97.433,0c-32.467,0-64.933,0-97.398,0
		c-16.263,0-32.527,0-48.791,0c-8.04,0-16.08,0-24.121,0c-3.969,0-7.939,0-11.908,0c-0.481,0-4.135-0.136-4.142,0.123
		c-0.022,0.814-0.013,1.629-0.013,2.443c0,2.157,0.005,4.314,0.005,6.472c0,1.942,0,3.886,0,5.827c0,1.672,0.389,3.681-0.411,5.217
		c-0.564,1.084-1.646,2.182-2.953,2.182c-2.094,0-4.19,0-6.285,0c-4.029,0-8.058,0-12.087,0c-3.867,0-7.735,0-11.603,0
		c-1.935,0-3.868,0-5.802,0c-1.472,0-3.485,0.347-4.628-0.823c-2.067-2.117-1.176-6.385-1.176-9.042c0-4.057,0-8.112,0-12.169
		C197.792,540.159,173.972,540.171,150.151,540.228C138.395,540.228,150.658,540.227,150.151,540.228z"/>
	<path fill="#FFFFFF" stroke="#000000" stroke-miterlimit="10" d="M151.765,530.469c1.244-3.365,3.25-6.337,5.529-9.081
		c4.484-5.399,10.112-9.126,16.961-10.82c13.55-3.35,28.515,3.073,35.433,15.237c0.725,1.275,1.385,2.584,2.08,3.876h7.308
		c-1.203-3.518-2.525-6.684-4.626-9.766c-1.976-2.897-4.225-5.667-6.959-7.886c-5.645-4.58-12.608-7.962-19.859-8.85
		c-6.859-0.838-14.047-0.061-20.482,2.493c-6.421,2.548-11.671,7.042-16.043,12.324c-1.883,2.276-3.529,4.669-4.72,7.38
		c-1.102,2.509-2.578,5.471-2.685,8.245c1.896,0,3.791,0,5.687,0h1.468C150.855,533.622,151.588,530.945,151.765,530.469z"/>
	<path fill="#FFFFFF" stroke="#000000" stroke-miterlimit="10" d="M362.638,514.316c1.388,0,2.775,0,4.164,0
		c-1.065-2.175-1.993-4.489-3.249-6.561c-7.4-12.202-19.891-21.077-34.065-23.252c-14.981-2.297-31.545,2.501-42.025,13.757
		c-2.454,2.636-4.634,5.356-6.673,8.319c-0.298,0.434-0.284,0.59-0.784,0.59c-0.771,0-1.542,0-2.312,0
		c-0.28,0-4.145,0.004-4.145-0.003c0-6.138,0-12.273,0-18.411c0-1.192,0-2.387,0-3.58c0-0.528,0.107-0.555-0.414-0.555
		c-2.745,0-5.49,0-8.235,0c-5.925,0-11.851,0-17.776,0c0,2.362,0,4.723,0,7.085c0,0.021,5.147,0.01,5.471,0.01
		c3.79,0,7.58,0,11.37,0c0.93,0,1.859,0,2.788,0c0.144,0,0.063,1.26,0.063,1.411c0,6.682,0,13.361,0,20.041
		c0,0.524-0.203,0.842,0.346,0.842c1.264,0,2.526,0,3.789,0c3.749,0,7.496,0,11.245,0c0.22,0,2.119,0.181,2.229-0.014
		c0.795-1.391,1.603-2.776,2.367-4.184c1.609-2.965,4.356-5.472,6.756-7.778c4.994-4.802,11.468-7.891,18.073-9.806
		c7.817-2.268,16.213-1.345,23.875,1.028c7.395,2.29,13.111,7.337,18.314,12.832c2.234,2.357,3.713,5.403,5.264,8.228H362.638z"/>
	<path fill="#FFFFFF" stroke="#000000" stroke-miterlimit="10" d="M463.6,514.161c1.403,0,2.807,0,4.209,0
		c-1.842-4.009-3.67-7.856-6.474-11.315c-1.362-1.68-2.672-3.639-4.274-5.101c-1.86-1.695-3.907-3.216-5.917-4.728
		c-2.778-2.09-6.107-3.841-9.282-5.239c-3.505-1.544-7.047-2.544-10.807-3.165c-3.946-0.653-7.778-0.702-11.776-0.632
		c-4.038,0.071-7.988,1.133-11.808,2.35c-6.991,2.229-13.275,6.467-18.495,11.541c-2.677,2.602-5.053,5.351-7.183,8.433
		c-0.767,1.109-1.242,2.488-1.809,3.704c-0.604,1.297-1.207,2.596-1.807,3.896c1.472,0.051,2.944,0.103,4.417,0.153h3.082
		c0,0,1.326-3.009,1.632-3.468c0.306-0.46,2.194-3.111,2.5-3.469c0.306-0.357,2.391-2.495,2.391-2.495
		c2.41-2.513,4.987-5.28,8.062-6.978c3.624-2.002,7.245-3.764,11.158-5.13c2.058-0.719,4.276-1.293,6.443-1.535
		c2.139-0.24,4.339-0.033,6.486,0.003c1.907,0.03,3.811-0.034,5.684,0.367c1.921,0.411,3.846,0.856,5.738,1.381
		c1.866,0.519,3.685,1.53,5.437,2.336c1.672,0.77,3.131,1.671,4.631,2.742c1.56,1.112,3.208,2.185,4.609,3.498
		c1.476,1.381,2.83,2.884,4.292,4.276c1.246,1.185,2.144,2.915,3.086,4.34l2.384,4.234H463.6z"/>
	<path fill="#FFFFFF" stroke="#000000" stroke-miterlimit="10" d="M564.132,514.161c1.404,0,2.807,0,4.21,0
		c-1.842-4.009-3.67-7.856-6.474-11.315c-1.362-1.68-2.673-3.639-4.275-5.101c-1.859-1.695-3.907-3.216-5.916-4.728
		c-2.778-2.09-6.107-3.841-9.282-5.239c-3.505-1.544-7.047-2.544-10.807-3.165c-3.947-0.653-7.778-0.702-11.777-0.632
		c-4.038,0.071-7.987,1.133-11.807,2.35c-6.991,2.229-13.274,6.467-18.494,11.541c-2.679,2.602-5.056,5.351-7.184,8.433
		c-0.768,1.109-1.242,2.488-1.811,3.704c-0.604,1.297-1.205,2.596-1.807,3.896c1.472,0.051,2.944,0.103,4.417,0.153h3.081
		c0,0,1.326-3.009,1.633-3.468c0.307-0.46,2.193-3.111,2.499-3.469c0.307-0.357,2.392-2.495,2.392-2.495
		c2.409-2.513,4.986-5.28,8.062-6.978c3.625-2.002,7.245-3.764,11.158-5.13c2.058-0.719,4.277-1.293,6.444-1.535
		c2.139-0.24,4.339-0.033,6.486,0.003c1.907,0.03,3.811-0.034,5.683,0.367c1.922,0.411,3.846,0.856,5.739,1.381
		c1.866,0.519,3.685,1.53,5.436,2.336c1.672,0.77,3.131,1.671,4.631,2.742c1.56,1.112,3.208,2.185,4.61,3.498
		c1.476,1.381,2.829,2.884,4.292,4.276c1.246,1.185,2.144,2.915,3.086,4.34l2.384,4.234H564.132z"/>
</g>
<g id="Window">
	<rect x="520.875" y="347" fill="#FFFFFF" stroke="#000000" stroke-miterlimit="10" width="54.5" height="68"/>
</g>
<g id="Wheel1">
	<g>
		<path fill="#FFFFFF" stroke="#000000" stroke-miterlimit="10" d="M175.898,545.232l-16.632-16.842
			c-5.347,5.42-8.77,12.742-9.142,20.866l23.754,0.103l-23.754-0.103c-0.022,0.49-0.033,0.984-0.033,1.48v0.001h23.67
			C173.762,548.617,174.571,546.685,175.898,545.232z"/>
		<path fill="#FFFFFF" stroke="#000000" stroke-miterlimit="10" d="M181.923,542.576v-23.669c-8.309,0-15.868,3.188-21.537,8.402
			l16.559,16.967l-16.559-16.967c-0.382,0.352-0.756,0.711-1.12,1.081l16.632,16.842
			C177.391,543.601,179.537,542.576,181.923,542.576z"/>
		<path fill="#FFFFFF" stroke="#000000" stroke-miterlimit="10" d="M173.761,550.738h-23.67c0,7.56,2.639,14.497,7.04,19.957
			l17.463-16.363l-17.463,16.363c0.397,0.492,0.813,0.969,1.238,1.438l17.02-16.52C174.371,554.253,173.761,552.569,173.761,550.738
			z"/>
		<path fill="#FFFFFF" stroke="#000000" stroke-miterlimit="10" d="M175.389,555.614l-17.02,16.52
			c5.428,5.972,13.088,9.876,21.668,10.378l0.436-23.739l-0.436,23.739c0.624,0.035,1.252,0.06,1.886,0.06V558.9
			C179.246,558.9,176.876,557.606,175.389,555.614z"/>
		<path fill="#FFFFFF" stroke="#000000" stroke-miterlimit="10" d="M181.923,558.9v23.671c9.18,0,17.448-3.891,23.257-10.107
			l-18.507-15.087l18.507,15.087c0.365-0.392,0.721-0.789,1.066-1.198l-18.551-14.754C186.218,557.988,184.177,558.9,181.923,558.9z
			"/>
		<path fill="#FFFFFF" stroke="#000000" stroke-miterlimit="10" d="M187.938,545.234l16.08-17.411
			c-5.289-5.101-12.337-8.387-20.146-8.856c-0.201-0.013-0.403-0.022-0.605-0.033l0.167,23.643l-0.167-23.643
			c-0.445-0.019-0.893-0.026-1.342-0.026v23.669C184.307,542.576,186.445,543.605,187.938,545.234z"/>
		<path fill="#FFFFFF" stroke="#000000" stroke-miterlimit="10" d="M205.185,529.014l-16.302,17.46L205.185,529.014
			c-0.38-0.406-0.767-0.805-1.167-1.19l-16.08,17.411c1.33,1.451,2.148,3.381,2.148,5.504h23.662h-23.662
			c0,2.255-0.914,4.295-2.39,5.773l18.551,14.754c4.378-5.183,7.132-11.78,7.471-19.013l-23.738-0.194l23.738,0.194
			c0.023-0.503,0.039-1.008,0.039-1.516C213.756,542.338,210.5,534.701,205.185,529.014z"/>
		<path fill="#FFFFFF" stroke="#000000" stroke-miterlimit="10" d="M175.898,545.232l0.003,0.002L175.898,545.232
			c-1.327,1.452-2.137,3.385-2.137,5.506c0,1.831,0.609,3.515,1.627,4.876c1.488,1.992,3.857,3.286,6.535,3.286
			c2.254,0,4.295-0.912,5.772-2.389c1.477-1.479,2.39-3.519,2.39-5.773c0-2.123-0.818-4.053-2.148-5.504
			c-1.492-1.629-3.631-2.658-6.014-2.658C179.537,542.576,177.391,543.601,175.898,545.232z"/>
	</g>
	<g>
		<path fill="#FFFFFF" stroke="#000000" stroke-miterlimit="10" d="M515.514,534.026
			C515.514,534.026,515.514,534.026,515.514,534.026l-22.115-22.395c-7.109,7.208-11.661,16.945-12.156,27.746l31.584,0.134
			l-31.584-0.134c-0.028,0.65-0.042,1.308-0.042,1.968c0,0.001,0,0.001,0,0.001l31.472,0.001
			C512.673,538.527,513.749,535.958,515.514,534.026z"/>
		<path fill="#FFFFFF" stroke="#000000" stroke-miterlimit="10" d="M523.524,530.496v-31.473c-11.048,0-21.099,4.24-28.636,11.172
			l22.018,22.56l-22.018-22.56c-0.508,0.468-1.004,0.945-1.49,1.437l22.116,22.394C517.497,531.856,520.352,530.496,523.524,530.496
			z"/>
		<path fill="#FFFFFF" stroke="#000000" stroke-miterlimit="10" d="M531.521,534.029l21.381-23.151
			c-7.031-6.78-16.404-11.149-26.786-11.775c-0.268-0.016-0.538-0.031-0.806-0.042l0.222,31.436l-0.222-31.436
			c-0.594-0.026-1.188-0.037-1.785-0.037v31.473C526.693,530.496,529.537,531.862,531.521,534.029z"/>
		<path fill="#FFFFFF" stroke="#000000" stroke-miterlimit="10" d="M514.836,547.831l-22.641,21.973L514.836,547.831
			c-1.354-1.811-2.164-4.049-2.164-6.483H481.2c0.001,10.051,3.509,19.276,9.359,26.535l23.219-21.759l-23.219,21.759
			c7.268,9.019,18.154,14.991,30.457,15.711l0.579-31.565l-0.579,31.565c0.83,0.049,1.665,0.08,2.508,0.08v-31.473
			C519.964,552.201,516.814,550.479,514.836,547.831z"/>
		<path fill="#FFFFFF" stroke="#000000" stroke-miterlimit="10" d="M523.524,552.201v31.473c12.207,0,23.198-5.173,30.923-13.44
			l-24.608-20.06l24.608,20.06c0.485-0.519,0.959-1.05,1.417-1.593l-24.665-19.618C529.234,550.986,526.521,552.201,523.524,552.201
			z"/>
		<path fill="#FFFFFF" stroke="#000000" stroke-miterlimit="10" d="M534.235,543.104l31.562,0.256
			c0.032-0.668,0.051-1.339,0.051-2.014c0-11.168-4.328-21.322-11.396-28.885l-21.675,23.216l21.675-23.216
			c-0.504-0.541-1.02-1.07-1.552-1.583l-21.381,23.151c1.769,1.93,2.856,4.494,2.856,7.318h31.462h-31.462
			c0,2.998-1.214,5.71-3.178,7.675l24.665,19.618c5.822-6.892,9.482-15.664,9.934-25.281L534.235,543.104z"/>
		<path fill="#FFFFFF" stroke="#000000" stroke-miterlimit="10" d="M523.524,530.496c-3.173,0-6.027,1.36-8.01,3.529l0.002,0.004
			l-0.002-0.004c-0.001,0.001-0.001,0.001-0.001,0.001c-1.765,1.932-2.841,4.501-2.842,7.321c0,2.435,0.811,4.673,2.164,6.483l0,0
			l0,0c1.979,2.647,5.128,4.37,8.688,4.37c2.997,0,5.71-1.215,7.675-3.179c1.964-1.965,3.178-4.677,3.178-7.675
			c0-2.824-1.088-5.389-2.856-7.318l0,0l0,0C529.537,531.862,526.693,530.496,523.524,530.496z"/>
	</g>
</g>
<g id="Wheel2">
	<g>
		<path fill="#FFFFFF" stroke="#000000" stroke-miterlimit="10" d="M313.643,547.773l-22.64,21.974L313.643,547.773
			c-1.353-1.811-2.164-4.049-2.164-6.483h-31.473c0,10.051,3.51,19.276,9.36,26.536l23.22-21.759l-23.22,21.759
			c7.268,9.018,18.155,14.99,30.458,15.711l0.579-31.565l-0.579,31.565c0.83,0.048,1.665,0.079,2.507,0.079v-31.473
			C318.772,552.144,315.622,550.421,313.643,547.773z"/>
		<path fill="#FFFFFF" stroke="#000000" stroke-miterlimit="10" d="M322.332,530.438v-31.473c-11.047,0-21.098,4.24-28.636,11.173
			l22.018,22.559l-22.018-22.559c-0.508,0.467-1.005,0.945-1.49,1.438l22.116,22.393C316.306,531.8,319.16,530.438,322.332,530.438z
			"/>
		<path fill="#FFFFFF" stroke="#000000" stroke-miterlimit="10" d="M314.321,533.97L314.321,533.97l-22.115-22.394
			c-7.109,7.206-11.661,16.943-12.156,27.744l31.584,0.136l-31.584-0.136c-0.029,0.651-0.044,1.308-0.044,1.968
			c0,0.001,0,0.001,0,0.001l31.473,0.001C311.48,538.471,312.557,535.9,314.321,533.97z"/>
		<path fill="#FFFFFF" stroke="#000000" stroke-miterlimit="10" d="M333.043,543.046l31.563,0.256
			c0.03-0.668,0.051-1.338,0.051-2.014c0-11.167-4.329-21.322-11.396-28.885l-21.675,23.216l21.675-23.216
			c-0.504-0.54-1.02-1.07-1.552-1.583l-21.38,23.151l21.38-23.151c-7.032-6.78-16.405-11.149-26.788-11.775
			c-0.267-0.016-0.536-0.03-0.805-0.042l0.223,31.436l-0.223-31.436c-0.591-0.026-1.188-0.037-1.785-0.037v31.473
			c5.993,0,10.853,4.858,10.853,10.852h31.461h-31.461c0,2.997-1.215,5.711-3.178,7.675l24.666,19.617
			c5.821-6.89,9.483-15.662,9.934-25.28L333.043,543.046z"/>
		<path fill="#FFFFFF" stroke="#000000" stroke-miterlimit="10" d="M322.332,552.144v31.473c12.207,0,23.199-5.173,30.923-13.44
			l-24.608-20.059l24.608,20.059c0.486-0.52,0.958-1.049,1.417-1.594l-24.666-19.617
			C328.043,550.929,325.329,552.144,322.332,552.144z"/>
		<path fill="#FFFFFF" stroke="#000000" stroke-miterlimit="10" d="M314.325,533.972l-0.003-0.003l-0.001,0.001
			c-1.765,1.931-2.841,4.501-2.842,7.32c0,2.435,0.811,4.673,2.164,6.483l0,0l0,0c1.979,2.647,5.129,4.37,8.689,4.37
			c2.997,0,5.711-1.215,7.674-3.179s3.178-4.678,3.178-7.675c0-5.993-4.859-10.852-10.853-10.852c-3.172,0-6.026,1.361-8.01,3.53
			L314.325,533.972z"/>
	</g>
</g>
<g id="Wheel3">
	<g>
		<path fill="#FFFFFF" stroke="#000000" stroke-miterlimit="10" d="M422.992,530.496v-31.473c-11.046,0-21.098,4.24-28.635,11.172
			l22.017,22.56l-22.017-22.56c-0.508,0.468-1.005,0.946-1.491,1.438l22.116,22.393
			C416.966,531.856,419.819,530.496,422.992,530.496z"/>
		<path fill="#FFFFFF" stroke="#000000" stroke-miterlimit="10" d="M414.982,534.026L414.982,534.026l-22.116-22.394
			c-7.109,7.207-11.66,16.944-12.155,27.745l31.585,0.134l-31.585-0.134c-0.029,0.65-0.044,1.308-0.044,1.968
			c0,0.001,0,0.001,0,0.001l31.474,0.001C412.142,538.527,413.218,535.958,414.982,534.026z"/>
		<path fill="#FFFFFF" stroke="#000000" stroke-miterlimit="10" d="M412.141,541.348h-31.474c0.001,10.051,3.51,19.276,9.361,26.535
			l23.219-21.759l-23.219,21.759c7.268,9.019,18.155,14.991,30.458,15.711l0.58-31.565l-0.58,31.565
			c0.829,0.049,1.665,0.08,2.507,0.08v-31.473C416.999,552.201,412.141,547.343,412.141,541.348z M391.664,569.804l22.639-21.973
			L391.664,569.804z"/>
		<path fill="#FFFFFF" stroke="#000000" stroke-miterlimit="10" d="M433.704,543.104l31.562,0.256
			c0.032-0.668,0.051-1.339,0.051-2.014c0-11.168-4.328-21.321-11.396-28.885l-21.675,23.216l21.675-23.216
			c-0.504-0.541-1.02-1.07-1.553-1.583l-21.38,23.151l21.38-23.151c-7.03-6.78-16.403-11.149-26.786-11.775
			c-0.268-0.016-0.536-0.031-0.807-0.042l0.223,31.436l-0.223-31.436c-0.59-0.026-1.186-0.037-1.784-0.037v31.473
			c5.994,0,10.852,4.858,10.852,10.852h31.463h-31.463c0,2.998-1.213,5.71-3.177,7.675l24.666,19.617
			c5.821-6.891,9.483-15.663,9.934-25.28L433.704,543.104z"/>
		<path fill="#FFFFFF" stroke="#000000" stroke-miterlimit="10" d="M422.992,552.201v31.473c12.207,0,23.2-5.173,30.924-13.441
			l-24.607-20.059l24.607,20.059c0.485-0.519,0.959-1.05,1.417-1.593l-24.666-19.617
			C428.703,550.986,425.989,552.201,422.992,552.201z"/>
		<path fill="#FFFFFF" stroke="#000000" stroke-miterlimit="10" d="M414.985,534.029l-0.003-0.004v0.001
			c-1.765,1.932-2.841,4.501-2.842,7.321c0,5.995,4.858,10.854,10.852,10.854c2.997,0,5.711-1.215,7.675-3.179
			c1.964-1.965,3.177-4.677,3.177-7.675c0-5.993-4.857-10.852-10.852-10.852c-3.173,0-6.026,1.36-8.01,3.529L414.985,534.029z"/>
	</g>
</g>
<g id="Wheel4">
</g>
<g id="Bar">
	<rect x="256.811" y="538.068" fill="#FFFFFF" stroke="#000000" stroke-miterlimit="10" width="339.961" height="5.732"/>
</g>
<g id="Smoke1">
	<path fill="none" stroke="#000000" stroke-miterlimit="10" d="M215.75,297.75c0.168-2.428,0.345-4.854,0.534-7.28
		c0.198-2.553,0.128-5.378,0.876-7.848c1.006-3.319,2.424-6.558,3.849-9.714c0.434-0.961,0.837-2.011,1.472-2.862
		c0.875-1.173,1.848-2.278,2.801-3.386c1.877-2.183,3.673-4.638,6.171-6.13c0.769-0.459,1.543-0.912,2.282-1.417
		c0.379-0.259,1.08-0.632,1.109-1.153c0.091-1.623,0.022-3.255,0.099-4.879c0.166-3.54,1.563-6.688,3.029-9.879
		c0.578-1.258,1.152-2.695,2.17-3.669c1.164-1.115,2.381-2.177,3.583-3.251c1.14-1.02,2.299-2.023,3.407-3.078
		c0.885-0.842,0.44-2.776,0.479-3.884c0.081-2.226,0.879-4.117,1.944-6.053c1.033-1.879,2.284-3.118,4.141-4.139
		c1.79-0.984,3.63-1.895,5.514-2.687c1.277-0.537,2.532-1.009,3.923-1.064c3.331-0.133,6.699-0.104,10.026,0.097
		c0.608,0.037,1.218,0.078,1.821,0.166c0.182,0.027,0.805,0.298,0.957,0.239c0.548-0.212-0.235-3.771-0.261-4.277
		c-0.078-1.554,0.605-3.089,1.13-4.523c0.692-1.89,1.431-3.842,2.518-5.546c0.976-1.531,2.49-2.816,3.819-4.03
		c1.545-1.411,3.207-2.916,5.106-3.835c2.133-1.032,4.238-2.129,6.417-3.065c1.615-0.694,3.199-1.055,4.926-1.34
		c1.823-0.301,3.669-0.537,5.47-0.957c1.281-0.299,1.96-1.287,2.838-2.219c1.359-1.443,2.75-3.039,4.464-4.071
		c1.526-0.919,3.139-1.707,4.739-2.486c2.898-1.411,5.7-2.767,8.911-3.197c3.545-0.475,7.166-0.847,10.745-0.873
		c2.73-0.02,5.554,0.698,8.227,1.174c3.246,0.578,6.673,1.049,9.734,2.326c3.644,1.519,7.231,3.26,10.691,5.159
		c3.166,1.737,6.012,4.068,8.897,6.222c1.451,1.084,2.969,2.129,4.335,3.321c1.444,1.261,2.711,2.725,4.034,4.11
		c0.583,0.611,1.17,1.223,1.799,1.787c0.313,0.281,0.823,0.828,1.287,0.828c0.26,0,0.584-0.469,0.746-0.632
		c0.542-0.544,1.079-1.094,1.617-1.642c2.27-2.31,4.502-4.912,7.244-6.676c2.892-1.861,5.961-3.714,9.125-5.08
		c0.961-0.415,2.034-0.626,3.034-0.926c1.636-0.49,3.27-0.988,4.891-1.524c0.524-0.173,1.052-0.345,1.563-0.552
		c0.103-0.042,0.479-0.139,0.262-0.249c-0.819-0.416-1.747-0.673-2.61-0.98c-3.268-1.163-6.556-2.289-9.76-3.62
		c-1.076-0.447-2.268-0.881-3.208-1.587c-1.023-0.768-2.021-1.571-3.015-2.375c-2.983-2.411-5.954-4.87-8.709-7.541
		c-0.885-0.857-1.866-1.755-2.491-2.832c-0.656-1.131-1.196-2.334-1.738-3.522c-1.597-3.495-3.091-7.059-4.332-10.697
		c-0.422-1.237-0.895-2.534-1.034-3.843c-0.17-1.596-0.027-3.267,0.053-4.863c0.195-3.917,0.352-8.055,1.677-11.782
		c0.724-2.037,1.589-4.1,2.801-5.898c0.332-0.492,0.934-1.583-0.021-1.784c-0.479-0.101-1.056-0.016-1.547-0.026
		c-3.715-0.073-7.474-0.472-11.108-1.245c-1.99-0.423-4.003-0.966-5.826-1.891c-1.865-0.947-3.59-2.211-5.241-3.486
		c-3.617-2.792-7.14-5.953-9.952-9.572c-2.437-3.135-3.768-7.091-5.014-10.815c-1.175-3.51-2.331-7.135-2.464-10.859
		c-0.15-4.2,0.046-8.562,0.868-12.69c0.381-1.915,1.143-3.73,1.682-5.604c0.683-2.374,1.28-4.793,2.218-7.083
		c0.614-1.499,1.513-2.868,2.333-4.26c1.06-1.797,2.132-3.587,3.243-5.353c2.253-3.582,4.601-6.926,7.701-9.821
		c3.694-3.451,7.488-6.924,11.489-10.02c3.616-2.799,7.74-5.062,11.839-7.065c3.229-1.578,6.518-2.534,10.022-3.303
		c4.015-0.881,8.091-1.646,12.184-2.048c2.802-0.275,5.626-0.051,8.427,0.141c4.136,0.284,8.271,0.673,12.374,1.271
		c3.17,0.461,6.295,1.022,9.236,2.325c3.549,1.571,6.992,3.394,10.409,5.23c3.035,1.632,6.083,3.275,9.002,5.109
		c2.101,1.319,3.732,3.283,5.384,5.105c2.537,2.799,5.001,5.667,7.441,8.55c4.205,4.968,7.795,10.486,10.811,16.258
		c1.317,2.523,2.301,5.252,3.371,7.885c1.374,3.38,2.765,6.768,3.951,10.219c0.896,2.605,1.32,5.374,1.83,8.074
		c0.6,3.178,1.271,6.384,1.609,9.603c0.099,0.938,0.528,1.308,1.322,1.85c1.394,0.951,2.918,1.716,4.415,2.485
		c2.359,1.213,4.859,2.196,6.693,4.16c2.595,2.78,5.045,5.756,7.208,8.885c2.046,2.961,3.113,6.193,4.152,9.617
		c1.136,3.742,2.572,7.962,2.413,11.925c-0.16,3.989-0.857,8.007-1.589,11.925c-0.444,2.381-1.147,4.382-2.119,6.591
		c-1.426,3.244-2.896,6.475-4.482,9.643c-1.238,2.471-2.809,4.518-4.492,6.708c-1.34,1.746-2.698,3.487-4.172,5.123
		c-1.164,1.291-2.484,2.428-3.743,3.625c-2.724,2.591-5.359,5.29-8.154,7.805c-1.593,1.433-3.316,2.728-4.997,4.054
		c-1.787,1.409-3.516,2.891-5.433,4.123c-0.907,0.583-1.837,1.139-2.715,1.767c-0.387,0.276-1.385,0.875-1.296,1.471
		c0.055,0.369,0.408,0.78,0.598,1.086c0.437,0.702,0.887,1.396,1.332,2.092c1.629,2.551,3.263,4.981,3.928,7.952
		c0.821,3.662,1.736,7.308,2.318,11.02c0.235,1.503,0.468,3.058,0.313,4.581c-0.162,1.603-0.514,3.191-0.867,4.76
		c-0.83,3.685-1.789,7.373-3.011,10.949c-0.869,2.545-2.47,4.731-3.975,6.938c-1.923,2.819-3.854,5.895-6.291,8.308
		c-2.001,1.98-4.369,3.671-6.578,5.406c-2.957,2.323-5.939,4.636-9.053,6.748c-3.27,2.218-7.029,3.481-10.764,4.697
		c-7.76,2.527-15.859,3.933-24.004,4.478c-3.128,0.209-6.258-0.23-9.349-0.672c-3.981-0.568-7.969-1.25-11.873-2.225
		c-3.205-0.8-6.01-2.252-8.889-3.852c-3.398-1.888-6.8-3.84-10.014-6.032c-1.868-1.274-3.54-2.835-5.177-4.387
		c-1.536-1.457-3.28-2.902-4.521-4.625c-0.375-0.521-0.909-1.684-1.65-1.757c-0.364-0.036-0.755,0.266-1.049,0.44
		c-1.286,0.76-2.54,1.574-3.811,2.357c-1.627,1.003-3.268,1.991-4.958,2.884c-1.218,0.644-2.58,1.422-3.969,1.605
		c-3.844,0.506-8.081,0.619-11.919,0.026c-1.658-0.256-3.209-1.066-4.699-1.799c-1.928-0.948-3.826-1.97-5.676-3.062
		c-3.377-1.993-6.165-4.798-9.255-7.182c-1.683-1.298-3.314-2.662-5.076-3.855c-1.666-1.128-3.481-1.767-5.273-2.647
		c-2.259-1.11-4.509-1.377-6.973-1.745c-1.021-0.152-3.099-0.917-3.861,0.128c-1.034,1.417-1.788,3.314-3.301,4.301
		c-1.62,1.056-3.199,2.213-4.93,3.086c-0.799,0.403-1.703,0.498-2.502,0.888c-0.776,0.379-0.757,1.083-0.872,1.827
		c-0.295,1.903-0.71,3.796-1.174,5.665c-1.729,6.968-6.622,12.505-11.382,17.633c-1.992,2.146-3.896,4.214-6.375,5.782
		c-1.684,1.064-3.408,2.078-5.203,2.943c-1.587,0.764-3.295,1.515-5.092,1.422c-2.114-0.109-4.19-0.705-6.239-1.193
		c-0.972-0.232-2.534-0.965-3.091,0.179c-0.764,1.568-1.151,3.354-1.62,5.026c-0.379,1.352-0.829,2.674-1.266,4.007
		c-0.538,1.64-1.057,3.287-1.621,4.917c-0.207,0.598-0.312,0.58-0.93,0.628c-2.267,0.178-4.563,0.125-6.835,0.121
		c-5.824-0.009-11.649-0.11-17.472-0.229C216.71,297.771,216.23,297.761,215.75,297.75z"/>
</g>
<g id="Smoke2">
	<path fill="none" stroke="#000000" stroke-miterlimit="10" d="M488.667,80.25c0.043,0.471,0.057,7.729,4.715,6.886
		c4.657-0.843,9.911,1.384,10.303,1.66c1.376,0.969,2.881,1.749,4.357,2.533c2.33,1.236,4.797,2.238,6.607,4.239
		c2.561,2.833,4.979,5.865,7.115,9.053c2.02,3.017,3.072,6.311,4.098,9.799c1.122,3.812,2.54,8.112,2.383,12.15
		c-0.158,4.065-0.847,8.159-1.569,12.151c-0.438,2.426-1.133,4.465-2.092,6.715c-1.406,3.305-2.857,6.598-4.424,9.826
		c-1.223,2.518-2.772,4.604-4.435,6.835c-1.322,1.779-2.663,3.553-4.118,5.22c-1.148,1.315-2.451,2.474-3.694,3.693
		c-2.688,2.64-5.29,5.39-8.049,7.953c-1.572,1.46-3.273,2.78-4.933,4.131c-1.764,1.436-3.471,2.945-5.361,4.201
		c-0.896,0.594-1.814,1.16-2.682,1.8c-0.381,0.282-19.132,5.395-19.044,6.002c0.054,0.375,0.403,0.795,0.59,1.106
		c0.431,0.714,0.876,1.422,1.314,2.132c0.754,1.217,8.791,0.876,12.399,4.758c4.094,4.403,7.764,9.986,8.113,11.596
		c0.81,3.731,1.92,9.102,2.496,12.884c0.231,1.531-0.472,6.178-0.624,7.73c-0.16,1.633-3.045,4.947-3.045,4.947
		c-0.819,3.755-2.838,5.797-4.043,9.441c-0.858,2.593-2.438,4.821-3.924,7.07c-1.897,2.873-3.805,6.006-6.21,8.465
		c-1.975,2.018-4.312,3.74-6.494,5.509c-2.917,2.366-5.861,4.723-8.935,6.875c-3.228,2.26-6.938,3.547-10.625,4.786
		c-7.659,2.575-15.653,4.007-23.693,4.563c-3.087,0.213-6.178-0.235-9.229-0.685c-3.929-0.579-7.866-1.274-11.719-2.268
		c-3.164-0.815-5.934-2.295-8.775-3.926c-3.353-1.923-6.712-3.913-9.884-6.146c-1.844-1.3-3.494-2.89-5.11-4.47
		c-0.744-0.729-8.017-0.986-11.88-4.528c-4.008-3.676-4.608-10.642-5.232-11.536c-0.371-0.53-0.897-1.716-1.628-1.79
		c-0.36-0.037-0.745,0.271-1.035,0.448c-1.27,0.774-2.507,1.604-3.762,2.401c-1.606,1.023-3.226,2.03-4.895,2.939
		c-1.203,0.654-2.546,1.449-3.917,1.635c-3.795,0.516-7.977,0.631-11.766,0.027c-1.636-0.262-3.168-1.087-4.638-1.833
		c-1.903-0.967-3.776-2.008-5.603-3.121c-3.333-2.031-6.084-4.89-9.135-7.317c-1.661-1.324-3.271-2.713-5.011-3.929
		c-1.644-1.15-3.436-1.801-5.205-2.697c-2.23-1.131-4.451-1.403-6.883-1.778c-1.007-0.154-3.058-0.934-3.811,0.131
		c-1.021,1.443-1.765,3.376-3.259,4.382c-1.599,1.075-3.158,2.255-4.866,3.145c-0.789,0.41-1.681,0.507-2.47,0.904
		c-0.766,0.386-0.747,1.104-0.861,1.861c-0.291,1.939-0.701,3.868-1.158,5.771c-1.707,7.101-6.537,12.743-11.235,17.967
		c-1.966,2.187-3.845,4.294-6.293,5.893c-1.662,1.084-3.364,2.118-5.136,2.999c-1.567,0.779-3.252,1.543-5.026,1.448
		c-2.086-0.111-4.136-0.718-6.158-1.216c-0.96-0.236-2.501-0.984-3.051,0.182c-0.754,1.598-1.137,3.419-1.6,5.123
		c-0.374,1.377-0.817,2.725-1.249,4.083c-0.531,1.671-1.043,3.348-1.601,5.01c-0.204,0.609-0.308,0.591-0.918,0.64
		c-2.238,0.181-4.504,0.126-6.747,0.124c-5.749-0.009-11.499-0.112-17.247-0.233c-0.474-0.01-0.948-0.02-1.422-0.03
		c0.166-2.474,0.341-4.946,0.527-7.418c0.196-2.601,0.126-5.48,0.865-7.998c0.994-3.381,2.394-6.681,3.8-9.897
		c0.428-0.979,0.826-2.049,1.453-2.917c0.863-1.194,1.824-2.32,2.765-3.45c1.853-2.224,3.625-4.726,6.091-6.246
		c0.758-0.467,1.523-0.929,2.252-1.445c0.375-0.264,1.066-0.643,1.095-1.174c0.089-1.654,0.022-3.317,0.097-4.972
		c0.164-3.607,1.543-6.814,2.991-10.067c0.57-1.282,1.137-2.747,2.142-3.739c1.149-1.135,2.35-2.218,3.536-3.312
		c1.125-1.039,2.269-2.062,3.363-3.137c0.874-0.857,0.435-2.828,0.473-3.957c0.08-2.269,0.868-4.195,1.919-6.168
		c1.02-1.916,2.254-3.177,4.087-4.217c1.768-1.003,3.583-1.932,5.443-2.737c1.262-0.547,2.499-1.028,3.873-1.085
		c3.288-0.135,6.613-0.106,9.897,0.099c0.6,0.037,1.202,0.08,1.797,0.169c0.18,0.027,0.795,0.304,0.945,0.244
		c0.542-0.217-0.232-3.843-0.257-4.358c-0.077-1.584,0.598-3.147,1.116-4.609c0.683-1.925,1.413-3.915,2.485-5.651
		c0.964-1.561,2.458-2.871,3.77-4.107c1.525-1.438,3.166-2.971,5.041-3.908c2.105-1.052,4.184-2.169,6.333-3.123
		c1.594-0.707,3.158-1.075,4.863-1.366c1.799-0.307,3.621-0.547,5.399-0.975c1.264-0.304,1.935-1.312,2.801-2.261
		c1.342-1.47,2.715-3.097,4.407-4.148c1.506-0.937,4.452-6.896,6.031-7.689c2.861-1.437,5.627-2.819,8.796-3.257
		c3.5-0.484,7.073-0.863,10.606-0.889c2.695-0.02,5.483,0.712,8.121,1.196c3.204,0.588,6.587,1.069,9.608,2.37
		c3.597,1.548,7.188,3.636,11.045,7.964c2.425,2.721,4.089,6.594,6.938,8.789c1.433,1.104,2.93,2.169,4.279,3.384
		c1.426,1.285,2.676,2.777,3.981,4.188c0.575,0.623,1.155,1.246,1.776,1.821c0.309,0.287,0.812,0.844,1.271,0.844
		c0.256,0,0.577-0.479,0.736-0.644c0.535-0.555,1.064-1.114,1.596-1.673c2.24-2.354,4.444-5.004,7.15-6.803
		c2.855-1.896,5.884-3.785,9.007-5.175c0.948-0.423,2.009-0.639,2.995-0.944c1.614-0.499,3.228-1.006,4.827-1.553
		c0.518-0.177,1.038-0.351,1.544-0.562c0.101-0.042,0.473-0.142,0.258-0.254c-0.808-0.424-1.724-0.686-2.576-0.999
		c-3.227-1.185-6.472-2.333-9.634-3.688c-1.062-0.456-2.238-0.898-3.167-1.618c-1.01-0.782-1.995-1.601-2.976-2.419
		c-2.945-2.457-13.832-1.76-16.551-4.482c-0.873-0.874-1.842-1.789-2.458-2.886c-0.647-1.152-3.508-1.493-5.193-2.506
		c-1.643-0.987-4.051-2.782-4.771-4.604c-0.162-0.411-0.323-0.823-0.48-1.235c-0.539-1.408,0.637-2.955,0.975-5.062
		c0.211-1.314,2.594-3.664,2.457-4.998c-0.168-1.626-0.026-3.329,0.052-4.956c0.192-3.991,8.302-11.409,9.61-15.207
		c0.714-2.076,1.568-4.178,2.765-6.01c0.327-0.501,0.922-1.614-0.02-1.818c-0.474-0.103-1.042-0.017-1.527-0.026
		c-3.667-0.074-7.377-0.48-10.965-1.269c-1.964-0.431-3.951-0.984-5.75-1.927c-1.84-0.965-3.544-2.253-5.173-3.552
		c-3.571-2.845-9.022-4.969-11.798-8.656c-2.405-3.195-5.527-7.602-6.757-11.396c-1.16-3.576-5.185-10.525-6.188-14.177
		c-1.368-4.97,1.499-11.134,2.311-15.34c0.376-1.951,2.053-3.7,3.469-5.086c3.162-3.095,2.506-3.574,3.432-5.908
		c0.607-1.526,1.493-2.922,2.303-4.341c1.046-1.832,2.105-3.655,3.202-5.454c2.223-3.65,3.824-9.788,7.73-11.465
		c7.815-3.356,7.099-3.345,11.048-6.5c3.569-2.852,10.837-4.542,14.883-6.583c3.188-1.608,6.434-2.582,9.893-3.365
		c3.963-0.897,7.987-1.677,12.027-2.087c2.766-0.28,5.554-0.052,8.318,0.144c4.081,0.29,8.164,0.686,12.214,1.295
		c3.129,0.47,6.213,1.042,9.116,2.369c3.503,1.601,6.912,2.296,10.722,2.061c5.401-0.333,9.561,2.884,12.443,4.753
		c2.072,1.344,3.683,3.345,5.312,5.201c2.506,2.853,4.938,5.774,7.346,8.712c4.151,5.062,7.694,10.685,10.671,16.566
		c1.301,2.571,2.271,5.351,3.327,8.035c1.357,3.444,1.811,7.229,1.889,12.732c0.04,2.812,2.771,1.129,3.996,3.74L488.667,80.25z"/>
</g>
<g id="Smoke3">
	<path fill="none" stroke="#000000" stroke-miterlimit="10" d="M215.75,296.569c0.174-2.474,0.358-4.946,0.553-7.419
		c0.206-2.601,0.132-5.479,0.907-7.997c1.042-3.381,2.511-6.681,3.986-9.897c0.449-0.979,0.866-2.049,1.524-2.917
		c0.905-1.194,1.913-2.32,2.9-3.45c1.944-2.224,3.804-4.725,6.391-6.246c0.795-0.467,1.598-0.929,2.363-1.444
		c0.393-0.264,1.119-0.643,1.149-1.175c0.094-1.653,0.023-3.317,0.102-4.972c0.171-3.607,1.619-6.814,3.137-10.067
		c0.598-1.282,1.193-2.747,2.247-3.739c1.206-1.135,2.466-2.218,3.71-3.312c1.181-1.039,2.38-2.062,3.528-3.137
		c0.917-0.857,0.456-2.828,0.496-3.957c0.083-2.269,0.911-4.195,2.013-6.168c1.069-1.916,2.365-3.177,4.288-4.217
		c1.854-1.003,3.759-1.932,5.71-2.737c1.323-0.547,2.622-1.028,4.063-1.085c3.449-0.135,6.937-0.106,10.382,0.099
		c0.629,0.037,1.261,0.08,1.885,0.169c0.189,0.027,0.834,0.304,0.991,0.244c0.568-0.217-0.244-3.843-0.27-4.358
		c-0.081-1.584,0.627-3.147,1.17-4.609c0.716-1.925,1.482-3.915,2.607-5.651c1.011-1.561,2.579-2.871,3.955-4.107
		c1.6-1.438,3.321-2.971,5.288-3.908c2.208-1.052,4.389-2.169,6.645-3.123c1.672-0.707,3.313-1.075,5.101-1.366
		c1.887-0.307,3.798-0.547,5.664-0.975c1.326-0.304,2.029-1.312,2.939-2.261c1.407-1.47,2.848-3.097,4.623-4.148
		c1.58-0.937,4.67-6.896,6.326-7.689c3.002-1.437,5.903-2.819,9.229-3.257c3.672-0.484,7.42-0.863,11.127-0.889
		c2.826-0.02,5.752,0.712,8.519,1.196c3.36,0.588,6.91,1.069,10.079,2.37c3.773,1.548,7.541,3.636,11.588,7.964
		c2.544,2.721,4.289,6.594,7.277,8.789c1.503,1.104,3.074,2.169,4.488,3.384c1.496,1.285,2.809,2.777,4.178,4.188
		c0.604,0.623,1.211,1.246,1.863,1.821c0.324,0.287,0.852,0.844,1.332,0.844c0.27,0,0.605-0.479,0.772-0.644
		c0.562-0.555,1.116-1.114,1.675-1.673c2.35-2.354,4.662-5.004,7.501-6.803c2.995-1.896,6.173-3.785,9.449-5.175
		c0.994-0.423,2.106-0.639,3.142-0.944c1.693-0.499,3.386-1.006,5.063-1.553c0.544-0.177,1.09-0.351,1.62-0.562
		c0.105-0.042,0.496-0.142,0.271-0.254c-0.848-0.424-1.809-0.686-2.702-0.999c-3.385-1.185-6.789-2.333-10.107-3.688
		c-1.114-0.456-2.348-0.898-3.322-1.618c-1.06-0.782-2.093-1.601-3.122-2.419c-3.089-2.457-14.511-1.76-17.363-4.482
		c-0.916-0.874-1.933-1.789-2.579-2.886c-0.68-1.152-3.68-1.493-5.448-2.506c-1.724-0.987-4.25-2.782-5.005-4.604
		c-0.17-0.411-0.338-0.823-0.504-1.235c-0.564-1.408,0.669-2.955,1.023-5.062c0.222-1.314,2.722-3.664,2.578-4.998
		c-0.178-1.626-0.028-3.329,0.054-4.956c0.202-3.991,8.71-11.409,10.081-15.207c0.75-2.076,1.646-4.178,2.9-6.01
		c0.344-0.501,0.967-1.614-0.021-1.818c-0.497-0.103-1.093-0.017-1.603-0.026c-3.847-0.074-7.738-0.48-11.502-1.269
		c-2.062-0.431-4.146-0.984-6.033-1.927c-1.931-0.965-3.718-2.253-5.427-3.552c-3.746-2.845-7.394-6.065-10.306-9.752
		c-2.523-3.195-3.901-7.226-5.192-11.021c-1.217-3.576-5.438-10.525-6.492-14.177c-1.435-4.97-2.396-10.414-1.544-14.62
		c0.395-1.951,1.183-3.801,1.741-5.71c0.707-2.418,1.325-4.884,2.297-7.218c0.636-1.526,1.566-2.922,2.416-4.341
		c1.098-1.832,2.208-3.655,3.358-5.454c2.332-3.65,4.764-7.057,7.975-10.007c3.825-3.516,7.754-7.055,11.896-10.21
		c3.744-2.852,14.398-0.355,18.643-2.396c3.346-1.608,6.75-2.582,10.379-3.365c4.157-0.897,8.378-1.677,12.616-2.087
		c2.901-0.28,5.826-0.052,8.727,0.144c4.281,0.29,8.564,0.686,12.813,1.295c3.282,0.47,6.518,1.042,9.563,2.369
		c3.675,1.601,7.251,2.296,11.247,2.061c5.667-0.333,10.03,2.884,13.054,4.753c2.175,1.344,3.864,3.345,5.574,5.201
		c2.628,2.853,5.179,5.774,7.706,8.712c4.354,5.062,8.071,10.685,11.194,16.566c1.364,2.571,2.382,5.351,3.49,8.035
		c1.424,3.444,1.899,7.229,1.981,12.732c0.042,2.812-0.722,6.877-0.193,9.629c0.621,3.238,0,0,3.193,4.371
		c0.283,0.388,2.785,1.979,7.672,1.136c4.886-0.843,10.397,1.384,10.808,1.66c1.443,0.969,3.022,1.749,4.571,2.533
		c2.444,1.236,5.032,2.238,6.932,4.239c2.687,2.833,5.225,5.865,7.465,9.053c2.118,3.017,3.223,6.311,4.299,9.799
		c1.177,3.812,2.664,8.112,2.499,12.15c-0.166,4.065-0.888,8.159-1.646,12.151c-0.46,2.426-1.188,4.465-2.194,6.715
		c-1.476,3.305-2.998,6.598-4.642,9.826c-1.282,2.518-2.908,4.604-4.652,6.835c-1.387,1.779-2.793,3.553-4.319,5.22
		c-1.205,1.315-2.572,2.474-3.876,3.693c-2.82,2.64-5.55,5.39-8.444,7.953c-1.649,1.46-3.434,2.78-5.174,4.131
		c-1.851,1.436-3.642,2.945-5.625,4.201c-0.94,0.594-1.903,1.16-2.812,1.8c-0.4,0.282-20.071,5.395-19.979,6.002
		c0.057,0.375,0.423,0.795,0.618,1.106c0.452,0.714,0.919,1.422,1.379,2.132c0.791,1.217,9.223,0.876,13.008,4.758
		c4.295,4.403,8.146,9.986,8.512,11.596c0.85,3.731,2.015,9.102,2.618,12.884c0.243,1.531-0.494,6.178-0.654,7.73
		c-0.168,1.633-3.194,4.947-3.194,4.947c-0.859,3.755-2.977,5.797-4.241,9.441c-0.9,2.593-2.558,4.821-4.116,7.07
		c-1.991,2.873-3.991,6.007-6.515,8.465c-2.071,2.019-4.523,3.74-6.812,5.509c-3.061,2.366-6.149,4.723-9.373,6.875
		c-3.386,2.26-7.278,3.547-11.146,4.785c-8.035,2.575-16.422,4.008-24.856,4.563c-3.238,0.213-6.48-0.235-9.681-0.685
		c-4.122-0.579-8.252-1.274-12.294-2.268c-3.319-0.814-6.225-2.295-9.206-3.926c-3.518-1.924-7.042-3.912-10.369-6.146
		c-1.935-1.3-3.665-2.89-5.36-4.47c-0.781-0.729-8.41-0.986-12.463-4.528c-4.205-3.676-4.834-10.642-5.488-11.536
		c-0.389-0.53-0.941-1.716-1.709-1.79c-0.377-0.037-0.781,0.271-1.086,0.448c-1.332,0.774-2.63,1.604-3.946,2.401
		c-1.685,1.022-3.384,2.03-5.134,2.939c-1.262,0.654-2.672,1.448-4.11,1.635c-3.981,0.516-8.368,0.631-12.343,0.027
		c-1.717-0.263-3.324-1.087-4.865-1.833c-1.997-0.968-3.963-2.008-5.879-3.121c-3.496-2.031-6.383-4.89-9.583-7.317
		c-1.743-1.324-3.433-2.713-5.257-3.929c-1.725-1.15-3.604-1.801-5.46-2.697c-2.339-1.131-4.669-1.403-7.221-1.778
		c-1.057-0.154-3.208-0.934-3.998,0.131c-1.071,1.443-1.852,3.376-3.419,4.382c-1.677,1.075-3.313,2.255-5.105,3.145
		c-0.828,0.41-1.764,0.507-2.591,0.904c-0.803,0.386-0.783,1.104-0.903,1.861c-0.306,1.939-0.735,3.868-1.215,5.771
		c-1.79,7.101-6.857,12.743-11.787,17.968c-2.062,2.187-4.033,4.294-6.602,5.893c-1.744,1.084-3.529,2.117-5.388,2.998
		c-1.644,0.779-3.412,1.543-5.273,1.448c-2.189-0.111-4.339-0.718-6.46-1.216c-1.007-0.236-2.624-0.984-3.201,0.182
		c-0.792,1.599-1.193,3.42-1.678,5.123c-0.393,1.377-0.857,2.725-1.311,4.083c-0.557,1.671-1.095,3.349-1.679,5.01
		c-0.214,0.609-0.323,0.591-0.963,0.64c-2.348,0.182-4.726,0.127-7.078,0.124c-6.031-0.009-12.063-0.112-18.093-0.233
		C216.745,296.59,216.248,296.58,215.75,296.569z"/>
</g>
</svg>
